# xmcd
#
# Track frame offsets: 
#        150
#        26465
#        43758
#        73301
#        97798
#        112021
#        136401
#        172386
#        191059
#        222419
#        241427
#        268569
#        294796
#        314718
#
# Disc length: 4425 seconds
#
# Revision: 0
# Processed by: cddbd v1.5.1PL0 Copyright (c) Steve Scherf et al.
# Submitted via: ExactAudioCopy v0.95a3
#
DISCID=dc11470e
DTITLE=Dire Straits - Romantic Ballads
DYEAR=1998
DGENRE=Blues
TTITLE0=Follow Me Home
TTITLE1=Fade To Black
TTITLE2=Your Latest Trick
TTITLE3=Water Of Love
TTITLE4=Iron Hand
TTITLE5=Once Upon A Time In The West
TTITLE6=It Never Rains
TTITLE7=Les Boys
TTITLE8=Ride Across Again
TTITLE9=Six Blade Knife
TTITLE10=Romeo and Juliet
TTITLE11=Communique
TTITLE12=Ticket To Heaven
TTITLE13=Where Do You Think You're Going
EXTD=
EXTT0=
EXTT1=
EXTT2=
EXTT3=
EXTT4=
EXTT5=
EXTT6=
EXTT7=
EXTT8=
EXTT9=
EXTT10=
EXTT11=
EXTT12=
EXTT13=
PLAYORDER=
